{"title":"Worlds.Greatest.Dad.2009.DVDRiP.XViD.MULTI-Zen_Bud","uid":6004396,"size":751654727,"categoryP":"video","categoryS":"movies","magnet":"?xt=urn:btih:1bcbf9f3c0bace23c1d4ff49a8f1c3b66647bd39&amp;dn=+Worlds.Greatest.Dad.2009.DVDRiP.XViD.MULTI-Zen_Bud&amp;tr=udp%3A%2F%2Ftracker.openbittorrent.com%3A80&amp;tr=udp%3A%2F%2Fopen.demonii.com%3A1337&amp;tr=udp%3A%2F%2Ftracker.coppersurfer.tk%3A6969&amp;tr=udp%3A%2F%2Fexodus.desync.com%3A6969","seeders":0,"leechers":0,"uploader":"Zen_Bud","files":-1,"time":1291278258,"description":"***** Worlds.Greatest.Dad.2009.DVDRiP.XViD.MULTI-Zen_Bud *****\n\nFormat                           : AVI\nFile size                        : 706 MiB\nDuration                         : 1h 34mn\nOverall bit rate                 : 1 044 Kbps\n\nVideo\n\nFormat                           : MPEG-4 Visual\nCodec ID/Hint                    : XviD\nDuration                         : 1h 34mn\nBit rate                         : 903 Kbps\nWidth                            : 720 pixels\nHeight                           : 552 pixels\nDisplay aspect ratio             : 1.855\nStream size                      : 611 MiB (86%)\nWriting library                  : XviD 1.1.2 (UTC 2006-11-01)\n\nAudio\n\nFormat                           : MPEG Audio\nCodec ID/Hint                    : MP3\nDuration                         : 1h 34mn\nBit rate                         : 128 Kbps\nChannel(s)                       : 2 channels\nSampling rate                    : 48.0 KHz\nStream size                      : 86.6 MiB (12%)\nWriting library                  : LAME3.98\nLanguage                         : English\n\nText #1\nLanguage                         : Finnish\n\nText #2\nLanguage                         : Norwegian\n\nText #3\nLanguage                         : Swedish\n\n******************************************************************\n\nA comedy about a man who learns that the things you want most\nmay not be the things that make you happy, and that being lonely \nis not necessarily the same as being alone. \n &lt;a href=&quot;\nhttp://en.wikipedia.org/wiki/World%27s_Greatest_Dad&quot; rel=&quot;nofollow&quot; target=&quot;_NEW&quot;&gt;\nhttp://en.wikipedia.org/wiki/World%27s_Greatest_Dad&lt;/a&gt;\n\n******************************************************************","torrent":{"xt":"urn:btih:1bcbf9f3c0bace23c1d4ff49a8f1c3b66647bd39","amp;dn":"+Worlds.Greatest.Dad.2009.DVDRiP.XViD.MULTI-Zen_Bud","amp;tr":["udp%3A%2F%2Ftracker.openbittorrent.com%3A80","udp%3A%2F%2Fopen.demonii.com%3A1337","udp%3A%2F%2Ftracker.coppersurfer.tk%3A6969","udp%3A%2F%2Fexodus.desync.com%3A6969"],"infoHash":"1bcbf9f3c0bace23c1d4ff49a8f1c3b66647bd39","infoHashBuffer":{"type":"Buffer","data":[27,203,249,243,192,186,206,35,193,212,255,73,168,241,195,182,102,71,189,57]},"announce":[],"urlList":[]}}